<svg width="16" height="18" viewBox="0 0 16 18" fill="none" xmlns="http://www.w3.org/2000/svg">
<path d="M6.52612 0.3125C5.44946 0.3125 4.5625 1.19946 4.5625 2.27612V2.9375H0.625V4.25H1.9375V15.4062C1.9375 16.488 2.82446 17.375 3.90625 17.375H11.7812C12.863 17.375 13.75 16.488 13.75 15.4062V4.25H15.0625V2.9375H11.125V2.27612C11.125 1.19946 10.238 0.3125 9.16138 0.3125H6.52612ZM6.52612 1.625H9.16138C9.53052 1.625 9.8125 1.90698 9.8125 2.27612V2.9375H5.875V2.27612C5.875 1.90698 6.15698 1.625 6.52612 1.625ZM3.25 4.25H12.4375V15.4062C12.4375 15.7754 12.1504 16.0625 11.7812 16.0625H3.90625C3.53711 16.0625 3.25 15.7754 3.25 15.4062V4.25ZM4.5625 5.5625V14.75H5.875V5.5625H4.5625ZM7.1875 5.5625V14.75H8.5V5.5625H7.1875ZM9.8125 5.5625V14.75H11.125V5.5625H9.8125Z" fill="white"/>
</svg>
